HIERARCHY
ROOT Hips
{
	OFFSET 0.0000 0.0000 0.0000
	CHANNELS 6 Xposition Yposition Zposition Zrotation Xrotation Yrotation
	JOINT Ab
	{
		OFFSET -0.0000 8.1305 -0.0000
		CHANNELS 3 Zrotation Xrotation Yrotation
		JOINT Chest
		{
			OFFSET -0.0000 26.2902 -0.0000
			CHANNELS 3 Zrotation Xrotation Yrotation
			JOINT Neck
			{
				OFFSET -0.0000 26.2902 0.0000
				CHANNELS 3 Zrotation Xrotation Yrotation
				JOINT Head
				{
					OFFSET -0.0000 10.8167 0.0000
					CHANNELS 3 Zrotation Xrotation Yrotation
					End Site
					{
						OFFSET -0.0000 16.7167 0.0000
					}
				}
			}
			JOINT LeftCollar
			{
				OFFSET -0.0000 26.2902 0.0000
				CHANNELS 3 Zrotation Xrotation Yrotation
				JOINT LeftShoulder
				{
					OFFSET 19.6667 -0.0000 0.0000
					CHANNELS 3 Zrotation Xrotation Yrotation
					JOINT LeftElbow
					{
						OFFSET 27.2190 0.0000 0.0000
						CHANNELS 3 Zrotation Xrotation Yrotation
						JOINT LeftWrist
						{
							OFFSET 30.7431 0.0000 0.0000
							CHANNELS 3 Zrotation Xrotation Yrotation
							End Site
							{
								OFFSET 0.0000 -14.7500 0.0000
							}
						}
					}
				}
			}
			JOINT RightCollar
			{
				OFFSET -0.0000 26.2902 0.0000
				CHANNELS 3 Zrotation Xrotation Yrotation
				JOINT RightShoulder
				{
					OFFSET -19.6667 0.0000 0.0000
					CHANNELS 3 Zrotation Xrotation Yrotation
					JOINT RightElbow
					{
						OFFSET -27.2190 0.0000 0.0000
						CHANNELS 3 Zrotation Xrotation Yrotation
						JOINT RightWrist
						{
							OFFSET -30.7431 0.0000 0.0000
							CHANNELS 3 Zrotation Xrotation Yrotation
							End Site
							{
								OFFSET -0.0000 -14.7500 0.0000
							}
						}
					}
				}
			}
		}
	}
	JOINT LeftHip
	{
		OFFSET 11.8000 0.0000 0.0000
		CHANNELS 3 Zrotation Xrotation Yrotation
		JOINT LeftKnee
		{
			OFFSET -0.0000 -39.7832 0.0000
			CHANNELS 3 Zrotation Xrotation Yrotation
			JOINT LeftAnkle
			{
				OFFSET -0.0000 -41.7317 0.0000
				CHANNELS 3 Zrotation Xrotation Yrotation
				End Site
				{
					OFFSET -0.0000 -4.9167 16.7167
				}
			}
		}
	}
	JOINT RightHip
	{
		OFFSET -11.8000 0.0000 0.0000
		CHANNELS 3 Zrotation Xrotation Yrotation
		JOINT RightKnee
		{
			OFFSET -0.0000 -39.7832 0.0000
			CHANNELS 3 Zrotation Xrotation Yrotation
			JOINT RightAnkle
			{
				OFFSET -0.0000 -41.7317 0.0000
				CHANNELS 3 Zrotation Xrotation Yrotation
				End Site
				{
					OFFSET -0.0000 -4.9167 16.7167
				}
			}
		}
	}
}
MOTION
Frames: 9
Frame Time: 0.010000
-16.6416 96.8406 178.2878 358.8011 359.5856 178.3923 357.8025 348.8760 0.8080 2.5820 8.7206 0.8213 359.2176 355.2457 359.6202 355.7274 3.4753 359.7836 339.2121 357.6015 13.1420 318.5691 58.7821 340.1865 8.5745 357.5586 328.4017 83.7041 357.5667 345.8964 27.3669 356.0168 343.7118 45.1444 47.0212 3.9094 341.7161 354.9792 30.4194 271.7228 355.8138 10.5341 357.5128 4.4724 358.1795 357.4698 8.8888 358.9185 355.3757 349.7188 22.0335 359.0139 8.9036 9.1313 5.8757 4.1976 5.6479 351.2448 343.7338 320.2323 
-16.6762 96.8346 178.2854 358.8101 359.5605 178.3916 357.8058 348.8729 0.8061 2.5808 8.7234 0.8192 359.1925 355.2148 359.6240 355.7368 3.5173 359.7867 339.2033 357.5921 13.1272 318.4995 58.7489 340.2724 8.5829 357.5550 328.3663 83.7301 357.5736 345.8905 27.3694 355.9939 343.7079 45.1366 47.0297 3.9171 341.6716 354.9755 30.4034 271.7153 355.7891 10.4900 357.4991 4.4126 358.1871 357.4677 8.9625 358.8732 355.4243 349.6848 22.0594 358.9954 8.8745 9.1592 5.8864 4.2100 5.6652 351.2565 343.7196 320.1912 
-16.7135 96.8301 178.2800 358.8139 359.5419 178.3927 357.8078 348.8740 0.7986 2.5724 8.7247 0.8139 359.1373 355.2290 359.6230 355.8003 3.4994 359.7841 339.2020 357.5811 13.1293 318.4777 58.7482 340.2853 8.5929 357.5567 328.3683 83.6736 357.5651 345.8570 27.3943 356.0055 343.7114 45.1090 46.9734 3.8994 341.7029 354.9773 30.4736 271.6216 355.9237 10.2926 357.4778 4.3586 358.1956 357.4671 9.0378 358.8470 355.4470 349.6457 22.0701 358.9724 8.8538 9.1603 5.8909 4.2209 5.6654 351.2962 343.6892 320.1926 
-16.7521 96.8248 178.2712 358.8230 359.5280 178.3979 357.8153 348.8781 0.7896 2.5616 8.7212 0.8052 359.0751 355.2680 359.6304 355.8859 3.4573 359.7912 339.2049 357.5731 13.1372 318.4451 58.7589 340.3069 8.6041 357.5634 328.3705 83.7273 357.5446 345.8932 27.4112 356.0061 343.7247 45.0976 46.9547 3.8758 341.6984 354.9586 30.5179 271.5486 356.0393 10.0940 357.4626 4.3134 358.1843 357.4614 9.1071 358.8127 355.4974 349.6071 22.0982 358.9548 8.8423 9.1503 5.8944 4.2283 5.6425 351.3138 343.6747 320.2187 
-16.7890 96.8190 178.2637 358.8342 359.5080 178.3924 357.8179 348.8703 0.7897 2.5556 8.7351 0.8059 359.0596 355.2795 359.6305 355.8963 3.4407 359.7900 339.2106 357.5696 13.1656 318.4946 58.7818 340.2275 8.5800 357.5499 328.3921 83.7783 357.5428 345.9125 27.4134 355.9930 343.7263 45.0954 46.9674 3.8721 341.6799 354.9705 30.5051 271.6016 355.9992 10.1248 357.4539 4.2637 358.1840 357.4459 9.1795 358.7784 355.4838 349.5700 22.1449 358.9391 8.8204 9.1706 5.9013 4.2404 5.6321 351.2753 343.6869 320.2141 
-16.8279 96.8132 178.2543 358.8486 359.4916 178.3881 357.8260 348.8654 0.7865 2.5522 8.7529 0.8010 359.0209 355.2785 359.6263 355.9311 3.4256 359.7848 339.2001 357.5638 13.2015 318.6050 58.8151 340.0884 8.5741 357.5703 328.4382 83.8213 357.5121 345.9770 27.4215 356.0061 343.7368 45.1113 46.9245 3.8337 341.7134 354.9624 30.5342 271.5741 356.0264 10.1093 357.4463 4.2231 358.1643 357.4301 9.2371 358.7805 355.5478 349.5486 22.1654 358.9279 8.7998 9.1300 5.8989 4.2627 5.6547 351.3151 343.6334 320.2398 
-16.8716 96.8085 178.2433 358.8532 359.4779 178.3845 357.8276 348.8640 0.7835 2.5479 8.7700 0.7989 358.9701 355.2747 359.6249 355.9752 3.4135 359.7858 339.1988 357.5672 13.2302 318.6658 58.8479 340.0042 8.5630 357.5720 328.4799 83.5964 357.4798 345.8623 27.4324 356.0221 343.7409 45.0969 46.8969 3.8326 341.7091 354.9711 30.5399 271.6006 356.0003 10.1171 357.4233 4.1813 358.1386 357.4192 9.3037 358.7761 355.5924 349.5154 22.1940 358.8988 8.7831 9.1340 5.9081 4.2811 5.6567 351.3367 343.6124 320.2243 
-16.9172 96.8037 178.2273 358.8580 359.4748 178.3786 357.8248 348.8662 0.7833 2.5455 8.7935 0.7988 358.9277 355.2643 359.6245 356.0147 3.4157 359.7823 339.1931 357.5650 13.2340 318.6669 58.8580 339.9975 8.5934 357.5518 328.4589 83.5964 357.6016 346.0100 27.4361 356.0272 343.7520 45.1121 46.8775 3.8070 341.7149 354.9676 30.5375 271.5975 355.9839 10.1646 357.3994 4.1585 358.1258 357.4101 9.3632 358.7470 355.6406 349.4831 22.2379 358.8703 8.7809 9.1278 5.9130 4.2985 5.6534 351.3894 343.5804 320.2296 
-16.9647 96.7978 178.2168 358.8634 359.4594 178.3651 357.8259 348.8669 0.7889 2.5453 8.8151 0.8026 358.8914 355.2406 359.6146 356.0285 3.4194 359.7765 339.1806 357.5564 13.2199 318.6109 58.8254 340.0663 8.6106 357.5517 328.4344 83.6177 357.5324 345.9532 27.4276 356.0279 343.7535 45.1376 46.8888 3.7978 341.6417 354.9316 30.5539 271.9374 355.7997 9.5989 357.3698 4.1198 358.1298 357.4072 9.4255 358.7477 355.6988 349.4589 22.2397 358.8393 8.7594 9.1630 5.9217 4.3162 5.6120 351.4665 343.5274 320.2477 
